<svg width="42" height="42" viewBox="0 0 42 42" fill="none" xmlns="http://www.w3.org/2000/svg">
<path d="M33.1955 5.24148H25.8925C25.1587 3.21479 23.2368 1.74719 20.9655 1.74719C18.6942 1.74719 16.7724 3.21479 16.0386 5.24148H8.7355C6.81364 5.24148 5.24121 6.81391 5.24121 8.73577V33.1958C5.24121 35.1177 6.81364 36.6901 8.7355 36.6901H33.1955C35.1174 36.6901 36.6898 35.1177 36.6898 33.1958V8.73577C36.6898 6.81391 35.1174 5.24148 33.1955 5.24148ZM20.9655 5.24148C21.9264 5.24148 22.7127 6.0277 22.7127 6.98863C22.7127 7.94956 21.9264 8.73577 20.9655 8.73577C20.0046 8.73577 19.2184 7.94956 19.2184 6.98863C19.2184 6.0277 20.0046 5.24148 20.9655 5.24148ZM24.4598 29.7015H12.2298V26.2072H24.4598V29.7015ZM29.7012 22.7129H12.2298V19.2186H29.7012V22.7129ZM29.7012 15.7244H12.2298V12.2301H29.7012V15.7244Z" fill="#03A6A6"/>
</svg>
