<svg width="24" height="34" viewBox="0 0 24 34" fill="none" xmlns="http://www.w3.org/2000/svg">
<path d="M12 0C5.38286 0 0 5.338 0 11.9C0 20.825 12 34 12 34C12 34 24 20.825 24 11.9C24 5.338 18.6171 0 12 0ZM12 3.4C13.8857 3.4 15.4286 4.93 15.4286 6.8C15.4286 8.687 13.8857 10.2 12 10.2C10.1143 10.2 8.57143 8.687 8.57143 6.8C8.57143 4.93 10.1143 3.4 12 3.4ZM12 20.4C9.13714 20.4 6.61714 18.955 5.14286 16.745C5.17714 14.501 9.72 13.26 12 13.26C14.28 13.26 18.8229 14.501 18.8571 16.745C17.3829 18.955 14.8629 20.4 12 20.4Z" fill="#03A6A6"/>
</svg>
