<svg width="41" height="41" viewBox="0 0 41 41" fill="none" xmlns="http://www.w3.org/2000/svg">
<path d="M29.0417 8.5417C30.4596 8.5417 31.6042 7.39712 31.6042 5.9792C31.6042 4.27087 29.0417 1.3667 29.0417 1.3667C29.0417 1.3667 26.4792 4.27087 26.4792 5.9792C26.4792 7.39712 27.6238 8.5417 29.0417 8.5417ZM20.5 8.5417C21.9179 8.5417 23.0625 7.39712 23.0625 5.9792C23.0625 4.27087 20.5 1.3667 20.5 1.3667C20.5 1.3667 17.9375 4.27087 17.9375 5.9792C17.9375 7.39712 19.0821 8.5417 20.5 8.5417ZM11.9583 8.5417C13.3763 8.5417 14.5208 7.39712 14.5208 5.9792C14.5208 4.27087 11.9583 1.3667 11.9583 1.3667C11.9583 1.3667 9.39583 4.27087 9.39583 5.9792C9.39583 7.39712 10.5404 8.5417 11.9583 8.5417ZM32.3217 13.6838C31.98 12.6759 31.0233 11.9584 29.8958 11.9584H11.1042C9.97667 11.9584 9.03708 12.6759 8.67833 13.6838L5.125 23.9167V37.5834C5.125 38.5229 5.89375 39.2917 6.83333 39.2917H8.54167C9.48125 39.2917 10.25 38.5229 10.25 37.5834V35.875H30.75V37.5834C30.75 38.5229 31.5188 39.2917 32.4583 39.2917H34.1667C35.1063 39.2917 35.875 38.5229 35.875 37.5834V23.9167L32.3217 13.6838ZM11.1042 30.75C9.68625 30.75 8.54167 29.6054 8.54167 28.1875C8.54167 26.7696 9.68625 25.625 11.1042 25.625C12.5221 25.625 13.6667 26.7696 13.6667 28.1875C13.6667 29.6054 12.5221 30.75 11.1042 30.75ZM29.8958 30.75C28.4779 30.75 27.3333 29.6054 27.3333 28.1875C27.3333 26.7696 28.4779 25.625 29.8958 25.625C31.3138 25.625 32.4583 26.7696 32.4583 28.1875C32.4583 29.6054 31.3138 30.75 29.8958 30.75ZM8.54167 22.2084L11.1042 14.5209H29.8958L32.4583 22.2084H8.54167Z" fill="#03A6A6"/>
</svg>
